<mxfile host="app.diagrams.net" agent="Mozilla/5.0 (Macintosh; Intel Mac OS X 10_15_7) AppleWebKit/537.36 (KHTML, like Gecko) Chrome/127.0.0.0 Safari/537.36" version="24.7.6">
  <diagram name="第 1 页" id="A09lGtO91ABeVb0lPZ-M">
    <mxGraphModel dx="1026" dy="685" grid="1" gridSize="10" guides="1" tooltips="1" connect="1" arrows="1" fold="1" page="1" pageScale="1" pageWidth="827" pageHeight="1169" background="#000000" math="0" shadow="0">
      <root>
        <mxCell id="0" />
        <mxCell id="1" parent="0" />
        <mxCell id="P-kxANTKAj5TKY9pIXBq-1" value="User" style="shape=umlActor;verticalLabelPosition=bottom;verticalAlign=top;html=1;outlineConnect=0;strokeColor=#FFFFFF;fillColor=#000000;fontColor=#FFFFFF;labelBackgroundColor=#000000;" parent="1" vertex="1">
          <mxGeometry x="20" y="35" width="30" height="60" as="geometry" />
        </mxCell>
        <mxCell id="P-kxANTKAj5TKY9pIXBq-3" value="Sequencer" style="rounded=1;whiteSpace=wrap;html=1;fontColor=#FFFFFF;labelBackgroundColor=#000000;fillColor=#000000;strokeColor=#FFFFFF;" parent="1" vertex="1">
          <mxGeometry x="270" y="51" width="126" height="59" as="geometry" />
        </mxCell>
        <mxCell id="P-kxANTKAj5TKY9pIXBq-4" value="" style="endArrow=classic;html=1;rounded=0;strokeColor=#FFFFFF;fontColor=#FFFFFF;labelBackgroundColor=#000000;" parent="1" edge="1">
          <mxGeometry width="50" height="50" relative="1" as="geometry">
            <mxPoint x="50" y="60" as="sourcePoint" />
            <mxPoint x="267" y="60" as="targetPoint" />
          </mxGeometry>
        </mxCell>
        <mxCell id="P-kxANTKAj5TKY9pIXBq-5" value="&lt;font style=&quot;&quot;&gt;1. Send message&lt;/font&gt;" style="edgeLabel;html=1;align=center;verticalAlign=middle;resizable=0;points=[];fontColor=#FFFFFF;labelBackgroundColor=#000000;" parent="P-kxANTKAj5TKY9pIXBq-4" vertex="1" connectable="0">
          <mxGeometry y="-1" relative="1" as="geometry">
            <mxPoint as="offset" />
          </mxGeometry>
        </mxCell>
        <mxCell id="P-kxANTKAj5TKY9pIXBq-6" value="Data &lt;br&gt;Availability" style="shape=cylinder3;whiteSpace=wrap;html=1;boundedLbl=1;backgroundOutline=1;size=15;fontColor=#FFFFFF;labelBackgroundColor=#000000;strokeColor=#FFFFFF;fillColor=#000000;" parent="1" vertex="1">
          <mxGeometry x="560" y="23" width="94.5" height="117" as="geometry" />
        </mxCell>
        <mxCell id="P-kxANTKAj5TKY9pIXBq-12" value="" style="endArrow=classic;html=1;rounded=0;fontColor=#FFFFFF;labelBackgroundColor=#000000;strokeColor=#FFFFFF;" parent="1" edge="1">
          <mxGeometry width="50" height="50" relative="1" as="geometry">
            <mxPoint x="50" y="100" as="sourcePoint" />
            <mxPoint x="270" y="100" as="targetPoint" />
          </mxGeometry>
        </mxCell>
        <mxCell id="P-kxANTKAj5TKY9pIXBq-13" value="3. Query message state" style="edgeLabel;html=1;align=center;verticalAlign=middle;resizable=0;points=[];fontColor=#FFFFFF;labelBackgroundColor=#000000;" parent="P-kxANTKAj5TKY9pIXBq-12" vertex="1" connectable="0">
          <mxGeometry x="-0.2471" relative="1" as="geometry">
            <mxPoint x="31" as="offset" />
          </mxGeometry>
        </mxCell>
        <mxCell id="P-kxANTKAj5TKY9pIXBq-24" value="" style="endArrow=classic;html=1;rounded=0;fontColor=#FFFFFF;labelBackgroundColor=#000000;strokeColor=#FFFFFF;exitX=1;exitY=0.5;exitDx=0;exitDy=0;entryX=0;entryY=0.5;entryDx=0;entryDy=0;entryPerimeter=0;" parent="1" source="P-kxANTKAj5TKY9pIXBq-3" target="P-kxANTKAj5TKY9pIXBq-6" edge="1">
          <mxGeometry width="50" height="50" relative="1" as="geometry">
            <mxPoint x="380" y="383" as="sourcePoint" />
            <mxPoint x="630" y="97" as="targetPoint" />
          </mxGeometry>
        </mxCell>
        <mxCell id="P-kxANTKAj5TKY9pIXBq-25" value="2. Build task &amp;amp; save into DA" style="edgeLabel;html=1;align=center;verticalAlign=middle;resizable=0;points=[];fontColor=#FFFFFF;labelBackgroundColor=#000000;" parent="P-kxANTKAj5TKY9pIXBq-24" vertex="1" connectable="0">
          <mxGeometry x="-0.0518" relative="1" as="geometry">
            <mxPoint as="offset" />
          </mxGeometry>
        </mxCell>
        <mxCell id="zauLdbbxjyopaiMLOlRp-11" value="" style="endArrow=classic;html=1;rounded=0;fontColor=#FFFFFF;labelBackgroundColor=#000000;strokeColor=#FFFFFF;entryX=0.5;entryY=0;entryDx=0;entryDy=0;" parent="1" edge="1">
          <mxGeometry width="50" height="50" relative="1" as="geometry">
            <mxPoint x="330" y="110" as="sourcePoint" />
            <mxPoint x="330" y="200" as="targetPoint" />
          </mxGeometry>
        </mxCell>
        <mxCell id="zauLdbbxjyopaiMLOlRp-12" value="4. Query task state" style="edgeLabel;html=1;align=center;verticalAlign=middle;resizable=0;points=[];fontColor=#FFFFFF;labelBackgroundColor=#000000;" parent="zauLdbbxjyopaiMLOlRp-11" vertex="1" connectable="0">
          <mxGeometry x="-0.0518" relative="1" as="geometry">
            <mxPoint x="2" y="-3" as="offset" />
          </mxGeometry>
        </mxCell>
        <mxCell id="TOwDueiDZW7sIGVibT_m-1" value="Coordinator" style="rounded=1;whiteSpace=wrap;html=1;fontColor=#FFFFFF;labelBackgroundColor=#000000;fillColor=#000000;strokeColor=#FFFFFF;" parent="1" vertex="1">
          <mxGeometry x="270" y="200" width="126" height="59" as="geometry" />
        </mxCell>
      </root>
    </mxGraphModel>
  </diagram>
</mxfile>
